<?xml version="1.0" encoding="utf-8"?>
<!-- Generator: Adobe Illustrator 21.1.0, SVG Export Plug-In . SVG Version: 6.00 Build 0)  -->
<svg version="1.1" id="Ebene_1" xmlns="http://www.w3.org/2000/svg" xmlns:xlink="http://www.w3.org/1999/xlink" x="0px" y="0px"
	 viewBox="0 0 140 140" style="enable-background:new 0 0 140 140;" xml:space="preserve">
<style type="text/css">
	.st0{opacity:0.2;}
	.st1{fill:#FFFFFF;}
</style>
<g class="st0">
	<rect x="38.2" y="84" transform="matrix(0.7071 -0.7071 0.7071 0.7071 -49.0795 56.8484)" class="st1" width="11.7" height="7.3"/>
	<path class="st1" d="M62.2,42.5l4.7-4.7c1.7-1.7,4.5-1.7,6.2,0l4.7,4.7l8.3-8.3l-13-13c-1.7-1.7-4.5-1.7-6.2,0l-13,13L62.2,42.5z"
		/>
	
		<rect x="92.2" y="81.8" transform="matrix(0.7071 -0.7071 0.7071 0.7071 -33.9169 93.4852)" class="st1" width="7.3" height="11.7"/>
	<rect x="83.9" y="90" transform="matrix(0.7071 -0.7071 0.7071 0.7071 -42.1168 90.0129)" class="st1" width="7.3" height="11.7"/>
	<rect x="81.8" y="40.4" transform="matrix(0.7071 -0.7071 0.7071 0.7071 -5.48 74.8504)" class="st1" width="11.7" height="7.3"/>
	<rect x="90" y="48.8" transform="matrix(0.7071 -0.7071 0.7071 0.7071 -8.9816 83.1209)" class="st1" width="11.7" height="7.3"/>
	
		<rect x="40.4" y="46.5" transform="matrix(0.7071 -0.7071 0.7071 0.7071 -24.1443 46.4841)" class="st1" width="7.3" height="11.7"/>
	<path class="st1" d="M42.5,77.8l-4.7-4.7c-1.7-1.7-1.7-4.5,0-6.2l4.7-4.7l-8.3-8.3l-13,13c-1.7,1.7-1.7,4.5,0,6.2l13,13L42.5,77.8z
		"/>
	<path class="st1" d="M118.7,66.9l-13-13l-8.3,8.3l4.7,4.7c1.7,1.7,1.7,4.5,0,6.2l-4.7,4.7l8.3,8.3l13-13
		C120.4,71.4,120.4,68.6,118.7,66.9z"/>
	<path class="st1" d="M77.8,97.5l-4.7,4.7c-1.7,1.7-4.5,1.7-6.2,0l-4.7-4.7l-8.3,8.3l13,13c1.7,1.7,4.5,1.7,6.2,0l13-13L77.8,97.5z"
		/>
	
		<rect x="46.5" y="92.2" transform="matrix(0.7071 -0.7071 0.7071 0.7071 -52.4812 65.0776)" class="st1" width="11.7" height="7.3"/>
	
		<rect x="48.7" y="38.2" transform="matrix(0.7071 -0.7071 0.7071 0.7071 -15.8444 49.915)" class="st1" width="7.3" height="11.7"/>
	<path class="st1" d="M95.9,66.9L73.1,44.1c-1.7-1.7-4.5-1.7-6.2,0L44.1,66.9c-1.7,1.7-1.7,4.5,0,6.2l22.8,22.8
		c1.7,1.7,4.5,1.7,6.2,0l22.8-22.8C97.6,71.4,97.6,68.6,95.9,66.9z M81.8,81c-0.8,0.3-2.2,0.6-4,0.9c-1.9,0.3-4.1,0.5-6.9,0.5
		c-2.3,0-4.5-0.3-6.4-0.9s-3.5-1.4-4.9-2.6c-1.3-1.1-2.4-2.5-3.1-4.1c-0.7-1.6-1.1-3.5-1.1-5.6s0.4-4,1.2-5.6s1.9-3,3.3-4.1
		c1.4-1.1,3.1-2,5-2.6S68.8,56,71,56c1.5,0,2.8,0.1,4,0.2c1.2,0.2,2.2,0.3,3.1,0.5s1.6,0.4,2.1,0.6c0.6,0.2,1,0.4,1.2,0.5l-2,4.6
		c-1-0.4-2.1-0.8-3.3-1.1c-1.2-0.3-2.6-0.5-4.1-0.5c-3.3,0-5.6,0.7-7.1,2.2s-2.2,3.5-2.2,6c0,1.2,0.2,2.4,0.5,3.4
		c0.4,1,0.9,1.9,1.6,2.6c0.7,0.7,1.6,1.3,2.7,1.7c1.1,0.4,2.3,0.6,3.8,0.6c0.8,0,1.4,0,2,0s1-0.1,1.5-0.1v-8.8h7
		C81.8,68.4,81.8,81,81.8,81z"/>
</g>
</svg>
